<svg xmlns="http://www.w3.org/2000/svg" viewBox="4811 5122 258.91796875 114.783203125" width="258.91796875" height="114.783203125" data-guides="{&quot;vertical&quot;:[],&quot;horizontal&quot;:[]}"><path fill="url(#tSvgGradient88c32c40c4)" stroke="none" fill-opacity="1" stroke-width="1" stroke-opacity="1" clip-rule="evenodd" fill-rule="evenodd" font-size-adjust="none" id="tSvg1781a4abf0d" title="Path 1" d="M 4875.3278482578535 5124.874695610795 C 4863.829848257854 5128.596695610795 4852.039848257854 5136.103655610795 4837.177848257854 5149.169655610795 C 4831.052848257854 5154.553655610795 4813.924888257854 5173.231655610795 4812.001885657854 5176.622655610795 C 4811.862888257853 5179.632655610795 4819.702888257853 5189.252655610795 4833.605848257854 5202.574655610795 C 4846.233848257853 5214.675655610795 4856.8278482578535 5222.505655610795 4862.717848257854 5224.091955610795 C 4866.870848257853 5225.209955610795 4874.051848257854 5224.701955610795 4880.355848257854 5222.843655610795 C 4885.531848257853 5221.496988944128 4883.883848257854 5216.918322277462 4883.883848257854 5214.475655610795 C 4881.883848257854 5206.442655610795 4845.3278482578535 5181.392655610795 4845.3278482578535 5177.476655610795 C 4845.3278482578535 5175.372655610795 4860.807848257854 5161.459655610795 4869.821848257853 5155.461655610795 C 4878.282848257853 5149.831655610795 4882.631848257854 5147.986655610795 4887.436848257854 5147.986655610795 C 4892.209848257854 5147.986655610795 4903.507848257854 5154.545655610795 4910.064848257854 5161.123655610795 C 4912.13871492452 5163.2039889441285 4914.212581591187 5165.284322277462 4916.286448257853 5167.364655610795 C 4918.043448257854 5166.810322277462 4919.8004482578535 5166.255988944128 4921.557448257854 5165.701655610795 C 4924.691448257853 5164.713655610795 4928.808448257853 5162.294655610795 4931.7154482578535 5159.735655610795 C 4937.920448257853 5154.273655610795 4937.641448257854 5153.179655610795 4927.449448257854 5142.986655610795 C 4911.169848257854 5126.707695610795 4891.1538482578535 5119.751695610795 4875.3278482578535 5124.874695610795ZM 4981.127448257854 5124.916695610795 C 4968.163448257854 5129.061695610795 4955.052448257854 5138.693655610795 4944.851448257854 5151.565655610795 C 4936.234448257854 5162.439655610795 4931.555448257854 5166.327655610795 4923.097448257854 5169.646655610795 C 4913.678448257853 5173.341655610795 4909.221848257854 5177.677655610795 4904.243848257854 5187.986655610795 C 4901.985848257854 5192.661655610795 4898.649848257854 5198.061655610795 4896.830848257853 5199.986655610795 C 4888.688848257853 5208.601655610795 4886.509848257853 5214.945655610795 4889.987848257853 5219.910655610795 C 4891.549848257853 5222.141655610795 4891.535848257854 5222.361655610795 4889.751848257853 5223.665955610795 C 4886.353848257853 5226.150955610795 4874.984848257854 5229.096955610795 4869.3278482578535 5228.957955610795 C 4861.617848257853 5228.768955610795 4861.337848257854 5228.919955610795 4865.663848257854 5230.937955610795 C 4866.94251492452 5231.534288944128 4868.221181591187 5232.130622277462 4869.499848257854 5232.726955610795 C 4868.60951492452 5232.950288944128 4867.7191815911865 5233.173622277462 4866.828848257854 5233.396955610795 C 4865.359848257854 5233.765955610795 4862.608848257853 5233.289955610795 4858.6808482578535 5233.808955610795 C 4856.2878482578535 5235.147955610795 4865.967848257854 5236.392955610795 4871.502848257854 5235.456955610795 C 4877.8368482578535 5234.386955610795 4886.347848257854 5231.238955610795 4890.707848257854 5228.353955610795 C 4893.965848257853 5226.197955610795 4894.977848257854 5225.9619556107955 4897.005848257853 5226.8859556107955 C 4902.624848257854 5229.445955610795 4905.390848257854 5228.399955610795 4915.327448257854 5219.952655610795 C 4918.352448257853 5217.381655610795 4924.694448257854 5213.474655610795 4929.421448257854 5211.270655610795 C 4939.307448257854 5206.660655610795 4941.794448257853 5203.979655610795 4946.281448257853 5193.097655610795 C 4948.420448257853 5187.910655610795 4952.031448257853 5182.439655610795 4958.997448257854 5173.827655610795 C 4977.558448257853 5150.881655610795 4989.049448257853 5144.491655610795 5001.472448257854 5150.207655610795 C 5008.463448257854 5153.423655610795 5021.162448257854 5163.126655610795 5029.327448257854 5171.491655610795 C 5031.4941149245205 5173.710988944128 5033.660781591187 5175.9303222774615 5035.827448257854 5178.149655610795 C 5033.827448257854 5179.977655610795 5031.827448257854 5181.805655610795 5029.827448257854 5183.633655610795 C 5019.5144482578535 5193.058655610795 5008.496448257853 5201.573655610795 5003.042448257854 5204.333655610795 C 4996.705448257853 5207.539655610795 4992.266448257854 5207.668655610795 4984.615448257853 5204.868655610795 C 4979.737448257853 5203.084655610795 4977.227448257853 5201.114655610795 4968.6484482578535 5192.333655610795 C 4965.2554482578535 5188.860988944129 4961.862448257853 5185.388322277462 4958.469448257853 5181.915655610795 C 4957.52911492452 5183.093322277462 4956.5887815911865 5184.2709889441285 4955.6484482578535 5185.448655610795 C 4953.2644482578535 5188.433655610795 4948.439448257854 5198.448655610795 4946.679448257853 5204.060655610795 C 4946.356448257854 5205.093655610795 4949.086448257854 5208.380655610795 4954.612448257853 5213.610655610795 C 4967.387448257854 5225.703955610795 4980.694448257854 5232.009955610795 4993.646448257854 5232.109955610795 C 5005.065448257854 5232.196955610795 5016.838448257854 5227.399955610795 5030.827448257854 5216.956655610795 C 5039.716448257854 5210.3216556107955 5059.228448257853 5191.349655610795 5065.504448257853 5183.241655610795 C 5069.5414482578535 5178.024655610795 5069.554448257853 5177.980655610795 5067.823448257854 5175.241655610795 C 5064.676448257854 5170.257655610795 5037.997448257854 5144.474655610795 5029.365448257853 5138.074655610795 C 5010.5724482578535 5124.140695610795 4995.9924482578535 5120.163695610795 4981.127448257854 5124.916695610795ZM 4927.5 5199.486655610795 C 4927.528487179779 5202.647290822889 4923.991448257853 5203.550655610795 4921.647448257853 5202.206655610795 C 4920.0724482578535 5201.631655610795 4919.419448257853 5198.646655610795 4920.807448257854 5197.018655610795 C 4922.691448257853 5194.588655610795 4927.471512820221 5195.326020398702 4927.5 5199.486655610795Z"/><defs><linearGradient id="tSvgGradient634bdca23c" x1="4963.855052763998" x2="4999.255787079752" y1="5123.537895481589" y2="5235.245307643411" gradientUnits="userSpaceOnUse" gradientTransform=""><stop offset="0.05" stop-color="hsl(210.78,88.64%,65.49000000000001%)" stop-opacity="1.00"/><stop offset="0.13" stop-color="hsl(203.184,100%,38.04%)" stop-opacity="1.00"/><stop offset="0.23" stop-color="hsl(207.864,75.68%,56.47%)" stop-opacity="1.00"/><stop offset="0.33" stop-color="hsl(208.90800000000002,79.61%,59.61%)" stop-opacity="1.00"/><stop offset="0.44" stop-color="hsl(203.184,100%,38.04%)" stop-opacity="1.00"/><stop offset="0.54" stop-color="hsl(210.78,88.64%,65.49000000000001%)" stop-opacity="1.00"/><stop offset="0.80" stop-color="hsl(303.51599999999996,100%,50%)" stop-opacity="1.00"/><stop offset="0.92" stop-color="hsl(203.184,100%,38.04%)" stop-opacity="1.00"/><stop offset="1.00" stop-color="hsl(358.884,86.29%,51.370000000000005%)" stop-opacity="0.06"/><stop offset="1.00" stop-color="hsl(0,93.55%,51.370000000000005%)" stop-opacity="0.00"/><stop offset="1.00" stop-color="hsl(358.884,86.29%,51.370000000000005%)" stop-opacity="0.06"/></linearGradient><linearGradient id="tSvgGradient88c32c40c4" x1="4941.266238613094" x2="4939.6519860281" y1="5123.001068732731" y2="5235.782045613859" fill="rgb(0, 0, 0)" font-size-adjust="none" gradientUnits="userSpaceOnUse" gradientTransform=""><stop offset="0.3" stop-color="hsl(210.78,88.64%,65.49000000000001%)" stop-opacity="1"/><stop offset="0.8" stop-color="hsl(203.184,100%,38.04%)" stop-opacity="1"/></linearGradient></defs></svg>